<svg xmlns="http://www.w3.org/2000/svg" viewBox="0 0 400 500" width="400" height="500"><defs><linearGradient id="bgp041" gradientTransform="rotate(35)"><stop offset="0" stop-color="#e7c3cd"/><stop offset="1" stop-color="#a4707f"/></linearGradient></defs><rect width="400" height="500" fill="url(#bgp041)"/><g transform="translate(200 225) scale(1.12) translate(-200 -225)"><rect x="88" y="155" width="224" height="260" rx="96" fill="#2a1d18"/><ellipse cx="200" cy="195" rx="96" ry="116" fill="#2a1d18"/><rect x="169" y="265" width="62" height="96" rx="24" fill="#d5beab"/><ellipse cx="114" cy="233" rx="13" ry="20" fill="#e3cbb6"/><ellipse cx="286" cy="233" rx="13" ry="20" fill="#e3cbb6"/><ellipse cx="200" cy="225" rx="84" ry="100" fill="#f2d8c2"/><path d="M148 203c10-9 28-9 38-1" fill="none" stroke="#241914" stroke-width="6" stroke-linecap="round"/><path d="M214 202c10-8 28-8 38 1" fill="none" stroke="#241914" stroke-width="6" stroke-linecap="round"/><ellipse cx="167" cy="227" rx="8" ry="9.5" fill="#2a1c16"/><ellipse cx="233" cy="227" rx="8" ry="9.5" fill="#2a1c16"/><path d="M194 237c-4 14 1 20 8 20" fill="none" stroke="#ae9c8c" stroke-width="4" stroke-linecap="round" opacity="0.7"/><path d="M178 277c10 12 34 12 44 0" fill="none" stroke="#ae9c8c" stroke-width="5" stroke-linecap="round"/><ellipse cx="200" cy="555" rx="172" ry="182" fill="#e8d7c3"/><ellipse cx="200" cy="541" rx="58" ry="74" fill="#c8b9a8"/></g></svg>