<svg xmlns="http://www.w3.org/2000/svg" viewBox="0 0 400 500" width="400" height="500"><defs><linearGradient id="bgp052" gradientTransform="rotate(70)"><stop offset="0" stop-color="#5d6b7a"/><stop offset="1" stop-color="#2c3743"/></linearGradient></defs><rect width="400" height="500" fill="url(#bgp052)"/><g transform="translate(200 262) scale(0.92) translate(-200 -262)"><ellipse cx="200" cy="232" rx="96" ry="116" fill="#3a2b22"/><rect x="169" y="302" width="62" height="96" rx="24" fill="#c8a280"/><ellipse cx="114" cy="270" rx="13" ry="20" fill="#d5ad89"/><ellipse cx="286" cy="270" rx="13" ry="20" fill="#d5ad89"/><ellipse cx="200" cy="262" rx="84" ry="100" fill="#e3b892"/><ellipse cx="200" cy="320" rx="62" ry="50" fill="#3a2b22" opacity="0.92"/><ellipse cx="200" cy="276" rx="54" ry="40" fill="#e3b892"/><path d="M148 240c10-9 28-9 38-1" fill="none" stroke="#31251d" stroke-width="6" stroke-linecap="round"/><path d="M214 239c10-8 28-8 38 1" fill="none" stroke="#31251d" stroke-width="6" stroke-linecap="round"/><ellipse cx="167" cy="264" rx="8" ry="9.5" fill="#2a1c16"/><ellipse cx="233" cy="264" rx="8" ry="9.5" fill="#2a1c16"/><path d="M194 274c-4 14 1 20 8 20" fill="none" stroke="#a38469" stroke-width="4" stroke-linecap="round" opacity="0.7"/><path d="M178 314c10 12 34 12 44 0" fill="none" stroke="#a38469" stroke-width="5" stroke-linecap="round"/><ellipse cx="200" cy="592" rx="172" ry="182" fill="#2f3b49"/><ellipse cx="200" cy="578" rx="58" ry="74" fill="#28333f"/></g></svg>