<svg xmlns="http://www.w3.org/2000/svg" viewBox="0 0 400 500" width="400" height="500"><defs><linearGradient id="bgp130" gradientTransform="rotate(0)"><stop offset="0" stop-color="#e2c39a"/><stop offset="1" stop-color="#8f7352"/></linearGradient></defs><rect width="400" height="500" fill="url(#bgp130)"/><g transform="translate(200 245) scale(1.0) translate(-200 -245)"><circle cx="200" cy="119" r="38" fill="#2b1f1a"/><ellipse cx="200" cy="215" rx="96" ry="116" fill="#2b1f1a"/><rect x="169" y="285" width="62" height="96" rx="24" fill="#d1b49e"/><ellipse cx="114" cy="253" rx="13" ry="20" fill="#e0c1a8"/><ellipse cx="286" cy="253" rx="13" ry="20" fill="#e0c1a8"/><ellipse cx="200" cy="245" rx="84" ry="100" fill="#eecdb3"/><path d="M148 223c10-9 28-9 38-1" fill="none" stroke="#251a16" stroke-width="6" stroke-linecap="round"/><path d="M214 222c10-8 28-8 38 1" fill="none" stroke="#251a16" stroke-width="6" stroke-linecap="round"/><ellipse cx="167" cy="247" rx="8" ry="9.5" fill="#2a1c16"/><ellipse cx="233" cy="247" rx="8" ry="9.5" fill="#2a1c16"/><path d="M194 257c-4 14 1 20 8 20" fill="none" stroke="#ab9481" stroke-width="4" stroke-linecap="round" opacity="0.7"/><path d="M178 297c10 12 34 12 44 0" fill="none" stroke="#ab9481" stroke-width="5" stroke-linecap="round"/><ellipse cx="200" cy="575" rx="172" ry="182" fill="#c4823f"/><ellipse cx="200" cy="561" rx="58" ry="74" fill="#a97036"/></g></svg>